<svg width="30" height="26" viewBox="0 0 30 26" fill="none" xmlns="http://www.w3.org/2000/svg">
<path d="M3.12328e-05 12.864C3.12328e-05 10.336 0.480031 8.112 1.44003 6.192C2.43203 4.272 3.79203 2.768 5.52003 1.68C7.24803 0.560003 9.23203 3.8147e-06 11.472 3.8147e-06C13.68 3.8147e-06 15.632 0.560003 17.328 1.68C19.024 2.768 20.352 4.272 21.312 6.192C22.272 8.112 22.752 10.336 22.752 12.864C22.752 15.36 22.272 17.584 21.312 19.536C20.384 21.456 19.088 22.976 17.424 24.096C15.76 25.184 13.84 25.728 11.664 25.728C9.36003 25.728 7.32803 25.184 5.56803 24.096C3.84003 22.976 2.48003 21.456 1.48803 19.536C0.496031 17.584 3.12328e-05 15.36 3.12328e-05 12.864ZM11.664 22.368C13.136 22.368 14.432 21.968 15.552 21.168C16.672 20.336 17.552 19.216 18.192 17.808C18.832 16.368 19.152 14.72 19.152 12.864C19.152 11.008 18.816 9.376 18.144 7.968C17.504 6.528 16.608 5.408 15.456 4.608C14.304 3.776 12.976 3.36 11.472 3.36C9.90403 3.36 8.51203 3.776 7.29603 4.608C6.11203 5.408 5.18403 6.528 4.51203 7.968C3.87203 9.376 3.56803 11.008 3.60003 12.864C3.63203 14.72 3.98403 16.368 4.65603 17.808C5.36003 19.216 6.32003 20.336 7.53603 21.168C8.75203 21.968 10.128 22.368 11.664 22.368Z" fill="black"/>
<path d="M24.1733 25.104V19.776H29.5013V25.104H24.1733Z" fill="#FF7700"/>
</svg>
